<svg width="671" height="76" viewBox="0 0 671 76" fill="none" xmlns="http://www.w3.org/2000/svg">
<path d="M41.64 22.296C41.64 19.608 41.192 17.144 40.296 14.904C39.4 12.664 37.992 10.904 36.072 9.62399C34.216 8.28 31.848 7.608 28.968 7.608C28.328 7.608 27.688 7.608 27.048 7.608C26.408 7.544 25.768 7.512 25.128 7.512C23.528 7.512 22.504 7.672 22.056 7.992C21.608 8.248 21.384 9.272 21.384 11.064C21.384 15.416 21.384 19.8 21.384 24.216C21.384 28.632 21.416 33.016 21.48 37.368C22.44 38.2 23.56 38.744 24.84 39C26.12 39.192 27.368 39.288 28.584 39.288C31.912 39.288 34.504 38.488 36.36 36.888C38.28 35.224 39.624 33.08 40.392 30.456C41.224 27.832 41.64 25.112 41.64 22.296ZM55.464 22.008C55.464 26.232 54.728 29.688 53.256 32.376C51.784 35 49.768 37.048 47.208 38.52C44.712 39.992 41.832 41.016 38.568 41.592C35.368 42.104 31.976 42.36 28.392 42.36C27.24 42.36 26.088 42.296 24.936 42.168C23.784 42.04 22.632 41.912 21.48 41.784C21.48 46.456 21.48 51.128 21.48 55.8C21.48 60.408 21.48 65.048 21.48 69.72C21.48 70.232 21.576 70.776 21.768 71.352C22.024 71.928 22.472 72.216 23.112 72.216C23.944 72.216 24.744 72.184 25.512 72.12C26.344 72.056 27.176 72.024 28.008 72.024C28.456 72.024 28.808 72.28 29.064 72.792C29.384 73.304 29.544 73.72 29.544 74.04C29.544 74.488 29.384 74.84 29.064 75.096C28.744 75.352 28.392 75.48 28.008 75.48C27.176 75.48 26.344 75.448 25.512 75.384C24.68 75.32 23.816 75.256 22.92 75.192C21.64 75.064 20.328 75 18.984 75C17.64 75 16.328 75 15.048 75C11.976 75 8.936 75.096 5.928 75.288C5.224 75.352 4.52 75.384 3.816 75.384C3.176 75.448 2.504 75.48 1.8 75.48C1.16 75.48 0.744 75.288 0.552 74.904C0.36 74.456 0.264 74.008 0.264 73.56C0.264 73.048 0.456 72.696 0.84 72.504C1.224 72.248 1.64 72.12 2.088 72.12C2.664 72.12 3.24 72.152 3.816 72.216C4.392 72.28 5 72.312 5.64 72.312C5.768 72.312 5.928 72.312 6.12 72.312C6.312 72.312 6.472 72.312 6.6 72.312C7.496 72.248 8.008 71.736 8.136 70.776C8.328 69.816 8.424 69.016 8.424 68.376V11.832C8.424 11.32 8.36 10.584 8.232 9.62399C8.104 8.6 7.656 8.056 6.888 7.992C6.696 7.992 6.504 7.992 6.312 7.992C6.184 7.992 6.056 7.992 5.928 7.992C5.288 7.992 4.648 8.024 4.008 8.088C3.368 8.152 2.728 8.184 2.088 8.184C1.64 8.184 1.192 7.992 0.744 7.608C0.36 7.224 0.168 6.808 0.168 6.36C0.168 5.91199 0.36 5.49599 0.744 5.112C1.192 4.728 1.64 4.536 2.088 4.536C2.792 4.536 3.496 4.568 4.2 4.632C4.968 4.696 5.704 4.76 6.408 4.824C7.88 4.888 9.32 4.952 10.728 5.016C12.2 5.016 13.64 5.016 15.048 5.016C17.992 5.016 20.904 4.952 23.784 4.824C26.728 4.632 29.672 4.536 32.616 4.536C35.432 4.536 38.184 4.856 40.872 5.496C43.624 6.072 46.088 7.032 48.264 8.376C50.44 9.72 52.168 11.512 53.448 13.752C54.792 15.992 55.464 18.744 55.464 22.008ZM115.946 73.656C115.946 74.808 115.402 75.384 114.314 75.384C113.418 75.384 112.49 75.32 111.53 75.192C110.634 75.128 109.738 75.064 108.842 75C107.562 74.936 106.25 74.936 104.906 75C103.626 75 102.346 75 101.066 75C99.5303 75 97.9943 75.064 96.4583 75.192C94.9863 75.384 93.5143 75.48 92.0423 75.48C91.6583 75.48 91.2743 75.32 90.8903 75C90.5703 74.616 90.4103 74.264 90.4103 73.944C90.4103 72.856 90.9543 72.312 92.0423 72.312C92.6823 72.312 93.2903 72.344 93.8663 72.408C94.4423 72.472 95.0503 72.504 95.6903 72.504C96.6503 72.504 97.1303 71.992 97.1303 70.968C97.1303 66.04 97.1303 61.144 97.1303 56.28C97.1943 51.352 97.2263 46.456 97.2263 41.592C97.2263 39.864 97.1623 37.976 97.0343 35.928C96.9063 33.816 96.5223 31.96 95.8823 30.36C95.3063 28.888 94.5703 27.896 93.6743 27.384C92.7783 26.872 91.5623 26.616 90.0263 26.616C88.6183 26.616 87.1463 27.128 85.6103 28.152C84.1383 29.176 82.8263 30.424 81.6743 31.896C80.5223 33.304 79.6583 34.616 79.0823 35.832V71.352C79.0823 72.056 79.5303 72.408 80.4263 72.408C81.0663 72.408 81.6743 72.376 82.2502 72.312C82.8263 72.184 83.4343 72.12 84.0743 72.12C84.3943 72.12 84.7143 72.312 85.0343 72.696C85.4183 73.016 85.6103 73.336 85.6103 73.656C85.6103 74.808 85.0663 75.384 83.9783 75.384C83.0823 75.384 82.1543 75.32 81.1943 75.192C80.2983 75.128 79.4023 75.096 78.5063 75.096C77.8663 75.096 77.2263 75.096 76.5863 75.096C75.9463 75.096 75.2743 75.096 74.5703 75.096H69.4823C68.2663 75.096 67.0503 75.16 65.8343 75.288C64.6183 75.416 63.4023 75.48 62.1863 75.48C61.1623 75.48 60.6503 74.904 60.6503 73.752C60.6503 72.728 61.1943 72.216 62.2823 72.216C62.9223 72.216 63.5303 72.248 64.1063 72.312C64.6823 72.376 65.2903 72.408 65.9303 72.408C66.6983 72.408 67.0823 72.056 67.0823 71.352V10.2C67.0823 9.56 66.9863 8.79199 66.7943 7.89599C66.6663 6.936 66.1543 6.456 65.2583 6.456C64.4263 6.456 63.5623 6.52 62.6663 6.648C61.8343 6.776 61.0023 6.84 60.1703 6.84C59.8503 6.84 59.5623 6.68 59.3063 6.36C59.0503 6.04 58.9223 5.72 58.9223 5.4C58.9223 4.76 59.3383 4.376 60.1703 4.248C62.7943 3.672 65.4183 3.224 68.0423 2.904C70.7303 2.52 73.3543 1.944 75.9143 1.17599C76.4263 0.983997 76.9383 0.887999 77.4503 0.887999C78.3463 0.887999 78.7943 1.304 78.7943 2.13599V29.976C80.6503 28.248 82.8263 26.712 85.3223 25.368C87.8183 24.024 90.3463 23.352 92.9063 23.352C97.2583 23.352 100.618 23.896 102.986 24.984C105.418 26.072 107.114 27.864 108.074 30.36C109.098 32.856 109.61 36.248 109.61 40.536V70.968C109.61 71.928 110.058 72.408 110.954 72.408C111.53 72.408 112.106 72.376 112.682 72.312C113.258 72.184 113.834 72.12 114.41 72.12C114.858 72.12 115.21 72.28 115.466 72.6C115.786 72.92 115.946 73.272 115.946 73.656ZM160.082 49.752C160.082 47.64 159.922 45.24 159.602 42.552C159.346 39.8 158.77 37.144 157.874 34.584C156.978 32.024 155.666 29.912 153.938 28.248C152.274 26.52 150.002 25.656 147.122 25.656C144.498 25.656 142.386 26.488 140.786 28.152C139.186 29.816 137.938 31.896 137.042 34.392C136.21 36.888 135.634 39.48 135.314 42.168C134.994 44.792 134.834 47.064 134.834 48.984C134.834 51.096 134.962 53.528 135.218 56.28C135.538 58.968 136.146 61.592 137.042 64.152C137.938 66.712 139.25 68.824 140.978 70.488C142.706 72.152 145.01 72.984 147.89 72.984C150.578 72.984 152.722 72.184 154.322 70.584C155.986 68.92 157.234 66.872 158.066 64.44C158.898 61.944 159.442 59.384 159.698 56.76C159.954 54.072 160.082 51.736 160.082 49.752ZM173.138 50.232C173.138 55.16 172.018 59.544 169.778 63.384C167.538 67.16 164.466 70.136 160.562 72.312C156.722 74.488 152.338 75.576 147.41 75.576C142.482 75.576 138.13 74.424 134.354 72.12C130.578 69.816 127.602 66.712 125.426 62.808C123.314 58.904 122.258 54.52 122.258 49.656C122.258 44.6 123.314 40.088 125.426 36.12C127.538 32.088 130.514 28.92 134.354 26.616C138.194 24.248 142.674 23.064 147.794 23.064C153.426 23.064 158.098 24.216 161.81 26.52C165.586 28.76 168.402 31.928 170.258 36.024C172.178 40.056 173.138 44.792 173.138 50.232ZM213.085 70.392C213.085 71.288 212.605 72.088 211.645 72.792C210.749 73.432 209.597 73.976 208.189 74.424C206.845 74.808 205.469 75.096 204.061 75.288C202.653 75.48 201.469 75.576 200.509 75.576C195.709 75.576 192.381 74.616 190.525 72.696C188.669 70.712 187.741 67.448 187.741 62.904C187.741 57.4 187.773 51.896 187.837 46.392C187.901 40.888 187.933 35.384 187.933 29.88H183.517C182.877 29.88 182.333 30.104 181.885 30.552C181.437 30.936 181.021 31.128 180.637 31.128C179.997 31.128 179.677 30.808 179.677 30.168C179.677 29.912 179.805 29.432 180.061 28.728C180.317 28.024 180.509 27.576 180.637 27.384C180.829 27 181.021 26.776 181.213 26.712C181.405 26.648 181.693 26.616 182.077 26.616H188.029V16.344C189.629 15.448 191.389 14.136 193.309 12.408C195.229 10.68 196.701 9.08 197.725 7.608C197.917 7.288 198.173 6.968 198.493 6.648C198.813 6.264 199.197 6.07199 199.645 6.07199C200.669 6.07199 201.149 6.51999 201.085 7.41599L200.797 26.616H210.685C211.197 26.616 211.645 26.744 212.029 27C212.477 27.192 212.701 27.576 212.701 28.152C212.701 29.368 212.029 29.976 210.685 29.976H200.797L200.605 67.032C200.605 68.056 200.797 69.048 201.181 70.008C201.629 70.904 202.461 71.352 203.677 71.352C204.765 71.352 205.853 71.256 206.941 71.064C208.093 70.872 209.149 70.552 210.109 70.104C210.429 69.976 210.717 69.848 210.973 69.72C211.293 69.528 211.613 69.432 211.933 69.432C212.701 69.432 213.085 69.752 213.085 70.392ZM255.332 49.752C255.332 47.64 255.172 45.24 254.852 42.552C254.596 39.8 254.02 37.144 253.124 34.584C252.228 32.024 250.916 29.912 249.188 28.248C247.524 26.52 245.252 25.656 242.372 25.656C239.748 25.656 237.636 26.488 236.036 28.152C234.436 29.816 233.188 31.896 232.292 34.392C231.46 36.888 230.884 39.48 230.564 42.168C230.244 44.792 230.084 47.064 230.084 48.984C230.084 51.096 230.212 53.528 230.468 56.28C230.788 58.968 231.396 61.592 232.292 64.152C233.188 66.712 234.5 68.824 236.228 70.488C237.956 72.152 240.26 72.984 243.14 72.984C245.828 72.984 247.972 72.184 249.572 70.584C251.236 68.92 252.484 66.872 253.316 64.44C254.148 61.944 254.692 59.384 254.948 56.76C255.204 54.072 255.332 51.736 255.332 49.752ZM268.388 50.232C268.388 55.16 267.268 59.544 265.028 63.384C262.788 67.16 259.716 70.136 255.812 72.312C251.972 74.488 247.588 75.576 242.66 75.576C237.732 75.576 233.38 74.424 229.604 72.12C225.828 69.816 222.852 66.712 220.676 62.808C218.564 58.904 217.508 54.52 217.508 49.656C217.508 44.6 218.564 40.088 220.676 36.12C222.788 32.088 225.764 28.92 229.604 26.616C233.444 24.248 237.924 23.064 243.044 23.064C248.676 23.064 253.348 24.216 257.06 26.52C260.836 28.76 263.652 31.928 265.508 36.024C267.428 40.056 268.388 44.792 268.388 50.232ZM336.559 45.24C334.575 47.608 332.175 49.56 329.359 51.096C326.607 52.568 323.695 53.304 320.623 53.304C317.679 53.304 314.831 52.76 312.079 51.672C309.391 50.52 306.799 49.24 304.303 47.832C301.807 46.36 299.407 45.08 297.103 43.992C294.799 42.84 292.591 42.264 290.479 42.264C288.047 42.264 285.679 42.744 283.375 43.704C281.135 44.664 279.055 45.848 277.135 47.256L275.023 44.184C276.303 42.776 277.839 41.464 279.631 40.248C281.423 38.968 283.343 37.912 285.391 37.08C287.439 36.248 289.423 35.832 291.343 35.832C294.479 35.832 297.391 36.376 300.079 37.464C302.831 38.552 305.455 39.832 307.951 41.304C310.447 42.712 312.911 43.96 315.343 45.048C317.775 46.136 320.239 46.68 322.735 46.68C324.975 46.68 327.087 46.168 329.071 45.144C331.119 44.056 332.975 42.872 334.639 41.592L336.559 45.24ZM429.026 73.272C429.026 74.616 428.482 75.288 427.394 75.288C425.09 75.288 422.786 75.256 420.482 75.192C418.242 75.128 416.002 75.096 413.762 75.096C411.586 75.096 409.41 75.128 407.234 75.192C405.058 75.32 402.882 75.384 400.706 75.384C400.066 75.384 399.618 75.192 399.362 74.808C399.106 74.36 398.978 73.88 398.978 73.368C398.978 72.856 399.17 72.472 399.554 72.216C400.002 71.896 400.45 71.736 400.898 71.736C401.474 71.736 402.05 71.768 402.626 71.832C403.202 71.896 403.778 71.928 404.354 71.928C404.482 71.928 404.642 71.928 404.834 71.928C405.026 71.928 405.186 71.928 405.314 71.928C406.402 71.8 406.978 71.192 407.042 70.104C407.17 68.952 407.234 67.992 407.234 67.224V17.304C403.586 26.392 399.874 35.448 396.098 44.472C392.386 53.432 388.738 62.488 385.154 71.64H377.666C374.018 62.168 370.242 52.76 366.338 43.416C362.498 34.072 358.722 24.664 355.01 15.192C355.01 23.96 355.074 32.728 355.202 41.496C355.33 50.2 355.394 58.936 355.394 67.704C355.394 68.472 355.426 69.4 355.49 70.488C355.618 71.512 356.226 72.024 357.314 72.024C358.146 72.024 358.946 71.992 359.714 71.928C360.482 71.864 361.282 71.832 362.114 71.832C362.562 71.832 362.946 72.024 363.266 72.408C363.586 72.728 363.746 73.112 363.746 73.56C363.746 73.88 363.618 74.264 363.362 74.712C363.106 75.096 362.786 75.288 362.402 75.288C361.25 75.288 360.098 75.256 358.946 75.192C357.794 75.128 356.642 75.096 355.49 75.096C353.442 75.096 351.362 75.128 349.25 75.192C347.138 75.256 345.058 75.288 343.01 75.288C342.37 75.288 341.954 75.128 341.762 74.808C341.57 74.424 341.474 73.944 341.474 73.368C341.474 72.856 341.666 72.472 342.05 72.216C342.498 71.96 342.914 71.832 343.298 71.832C343.874 71.832 344.45 71.864 345.026 71.928C345.666 71.992 346.274 72.024 346.85 72.024C347.938 72.024 348.706 71.896 349.154 71.64C349.666 71.32 349.922 70.552 349.922 69.336C349.922 59.608 349.954 49.88 350.018 40.152C350.146 30.36 350.21 20.6 350.21 10.872C350.21 9.848 350.018 9.112 349.634 8.664C349.314 8.15199 348.61 7.89599 347.522 7.89599C346.882 7.89599 346.242 7.928 345.602 7.992C344.962 8.056 344.322 8.088 343.682 8.088C343.17 8.088 342.722 7.896 342.338 7.512C341.954 7.128 341.762 6.68 341.762 6.168C341.762 4.952 342.402 4.34399 343.682 4.34399C345.218 4.34399 346.754 4.376 348.29 4.44C349.89 4.504 351.458 4.536 352.994 4.536C354.85 4.536 356.706 4.536 358.562 4.536C360.482 4.536 362.37 4.44 364.226 4.248L385.634 57.24C389.09 48.472 392.706 39.768 396.482 31.128C400.322 22.424 403.682 13.56 406.562 4.536C408.034 4.6 409.506 4.664 410.978 4.72799C412.514 4.72799 414.05 4.72799 415.586 4.72799C417.57 4.72799 419.554 4.664 421.538 4.536C423.586 4.408 425.602 4.34399 427.586 4.34399C428.098 4.34399 428.45 4.568 428.642 5.016C428.834 5.4 428.93 5.784 428.93 6.168C428.93 6.552 428.834 7 428.642 7.512C428.45 7.96 428.098 8.184 427.586 8.184C426.69 8.184 425.762 8.184 424.802 8.184C423.906 8.12 423.01 8.088 422.114 8.088C421.474 8.088 420.994 8.376 420.674 8.952C420.418 9.464 420.29 10.008 420.29 10.584C420.29 14.296 420.258 18.072 420.194 21.912C420.194 25.688 420.194 29.464 420.194 33.24C420.194 38.872 420.194 44.504 420.194 50.136C420.258 55.768 420.29 61.4 420.29 67.032C420.29 67.608 420.322 68.28 420.386 69.048C420.514 69.816 420.738 70.52 421.058 71.16C421.442 71.736 422.018 72.024 422.786 72.024C423.554 72.024 424.322 71.992 425.09 71.928C425.858 71.864 426.658 71.832 427.49 71.832C427.874 71.832 428.226 71.96 428.546 72.216C428.866 72.472 429.026 72.824 429.026 73.272Z" fill="#3B82F6"/>
<path d="M462.939 64.824C462.747 61.816 462.619 58.808 462.555 55.8C462.491 52.728 462.491 49.656 462.555 46.584C459.931 47.032 457.371 47.864 454.875 49.08C452.443 50.232 450.427 51.8 448.827 53.784C447.227 55.768 446.427 58.296 446.427 61.368C446.427 62.648 446.587 64.024 446.907 65.496C447.291 66.968 447.931 68.216 448.827 69.24C449.787 70.2 451.067 70.68 452.667 70.68C453.819 70.68 455.035 70.36 456.315 69.72C457.595 69.016 458.811 68.216 459.963 67.32C461.179 66.424 462.171 65.592 462.939 64.824ZM482.715 70.488C482.715 70.744 482.587 71.032 482.331 71.352C482.139 71.672 481.947 71.928 481.755 72.12C479.771 74.424 477.211 75.576 474.075 75.576C471.323 75.576 469.115 74.968 467.451 73.752C465.787 72.536 464.507 70.648 463.611 68.088C461.563 70.264 459.355 71.992 456.987 73.272C454.683 74.552 451.963 75.192 448.827 75.192C446.587 75.192 444.315 74.712 442.011 73.752C439.771 72.728 437.883 71.288 436.347 69.432C434.875 67.576 434.139 65.432 434.139 63C434.139 60.568 434.747 58.424 435.963 56.568C437.243 54.648 438.843 53.016 440.763 51.672C442.683 50.264 444.635 49.112 446.619 48.216C449.179 47.128 451.803 46.296 454.491 45.72C457.179 45.08 459.867 44.44 462.555 43.8V43.416C462.555 42.264 462.523 40.728 462.459 38.808C462.459 36.824 462.267 34.872 461.883 32.952C461.499 30.968 460.859 29.304 459.963 27.96C459.067 26.552 457.755 25.848 456.027 25.848C454.043 25.848 452.251 26.424 450.651 27.576C449.115 28.728 448.027 30.264 447.387 32.184C447.259 32.76 447.163 33.336 447.099 33.912C447.035 34.424 446.939 34.968 446.811 35.544C446.683 36.568 446.075 37.272 444.987 37.656C443.963 37.976 443.003 38.136 442.107 38.136C441.019 38.136 439.963 37.912 438.939 37.464C437.915 36.952 437.403 36.024 437.403 34.68C437.403 34.168 437.467 33.72 437.595 33.336C437.787 32.888 437.979 32.44 438.171 31.992C439.195 29.56 440.731 27.768 442.779 26.616C444.827 25.464 447.067 24.696 449.499 24.312C451.995 23.928 454.363 23.736 456.603 23.736C461.851 23.736 466.171 25.144 469.563 27.96C472.955 30.776 474.651 34.936 474.651 40.44V54.936C474.587 56.728 474.555 58.584 474.555 60.504C474.619 62.36 474.715 64.216 474.843 66.072C474.971 67.16 475.227 68.216 475.611 69.24C475.995 70.2 476.859 70.68 478.203 70.68C479.099 70.68 479.835 70.488 480.411 70.104C481.051 69.72 481.627 69.528 482.139 69.528C482.395 69.528 482.555 69.656 482.619 69.912C482.683 70.168 482.715 70.36 482.715 70.488ZM525.622 34.776C525.622 35.416 525.43 36.024 525.046 36.6C524.726 37.112 524.214 37.368 523.51 37.368C522.422 37.368 521.686 36.92 521.302 36.024C520.918 35.192 520.502 34.232 520.054 33.144C519.67 31.992 519.126 31 518.422 30.168C517.782 29.336 516.854 28.92 515.638 28.92C514.998 28.92 514.39 29.048 513.814 29.304C513.238 29.56 512.694 29.88 512.182 30.264C510.134 31.672 508.47 33.688 507.19 36.312C505.974 38.872 505.174 41.4 504.79 43.896V43.8C504.79 46.168 504.79 48.536 504.79 50.904C504.79 53.272 504.79 55.64 504.79 58.008V69.816C504.79 70.904 505.078 71.608 505.654 71.928C506.294 72.248 507.03 72.376 507.862 72.312C508.758 72.184 509.558 72.12 510.262 72.12C511.158 72.12 511.606 72.6 511.606 73.56C511.606 74.584 511.094 75.096 510.07 75.096C508.15 75.096 506.23 75.064 504.31 75C502.39 74.936 500.47 74.904 498.55 74.904C496.566 74.904 494.582 74.936 492.598 75C490.614 75.128 488.598 75.192 486.55 75.192C486.102 75.192 485.782 75.032 485.59 74.712C485.398 74.328 485.302 73.976 485.302 73.656C485.302 72.696 485.814 72.216 486.838 72.216C487.478 72.216 488.086 72.248 488.662 72.312C489.302 72.312 489.942 72.312 490.582 72.312C491.35 72.312 491.862 72.056 492.118 71.544C492.374 71.032 492.502 70.456 492.502 69.816C492.502 65.272 492.502 60.696 492.502 56.088C492.502 51.48 492.502 46.904 492.502 42.36C492.502 41.144 492.502 39.928 492.502 38.712C492.502 37.496 492.502 36.28 492.502 35.064C492.502 34.36 492.438 33.528 492.31 32.568C492.182 31.608 491.894 30.744 491.446 29.976C491.062 29.208 490.39 28.824 489.43 28.824C488.79 28.824 488.15 28.92 487.51 29.112C486.934 29.24 486.294 29.304 485.59 29.304C484.63 29.304 484.15 28.824 484.15 27.864C484.15 27.16 484.502 26.68 485.206 26.424C486.102 26.104 487.03 25.912 487.99 25.848C488.95 25.72 489.878 25.56 490.774 25.368C491.606 25.176 492.694 24.92 494.038 24.6C495.382 24.216 496.694 23.896 497.974 23.64C499.318 23.32 500.342 23.16 501.046 23.16C502.006 23.16 502.71 23.512 503.158 24.216C503.35 24.536 503.542 25.304 503.734 26.52C503.926 27.672 504.086 28.856 504.214 30.072C504.342 31.288 504.406 32.152 504.406 32.664C506.39 30.168 508.598 27.896 511.03 25.848C513.462 23.8 516.406 22.776 519.862 22.776C520.758 22.776 521.686 22.968 522.646 23.352C523.67 23.672 524.31 24.344 524.566 25.368C524.886 26.584 525.142 28.152 525.334 30.072C525.526 31.928 525.622 33.496 525.622 34.776ZM582.87 73.56C582.87 74.072 582.678 74.424 582.294 74.616C581.974 74.744 581.622 74.84 581.238 74.904C579.702 75.032 578.166 75.096 576.63 75.096C575.094 75.16 573.59 75.192 572.118 75.192C571.286 75.192 570.39 75.16 569.43 75.096C568.534 75.032 567.702 74.872 566.934 74.616C566.102 74.36 565.398 73.88 564.822 73.176C564.246 72.472 563.734 71.736 563.286 70.968C560.918 66.808 558.518 62.68 556.086 58.584C553.654 54.488 551.318 50.328 549.078 46.104L546.678 47.736V69.816C546.678 70.968 546.902 71.704 547.35 72.024C547.862 72.344 548.502 72.472 549.27 72.408C550.102 72.28 550.998 72.216 551.958 72.216C552.854 72.216 553.302 72.728 553.302 73.752C553.302 74.776 552.79 75.288 551.766 75.288C549.91 75.288 548.054 75.224 546.198 75.096C544.406 74.968 542.582 74.904 540.726 74.904C538.87 74.904 537.014 74.968 535.158 75.096C533.302 75.288 531.446 75.384 529.59 75.384C529.206 75.384 528.886 75.224 528.63 74.904C528.438 74.52 528.342 74.136 528.342 73.752C528.342 72.792 528.854 72.312 529.878 72.312C530.518 72.312 531.126 72.344 531.702 72.408C532.278 72.408 532.886 72.408 533.526 72.408C534.294 72.408 534.742 72.152 534.87 71.64C534.998 71.128 535.062 70.552 535.062 69.912C535.126 69.016 535.158 68.12 535.158 67.224C535.222 66.328 535.254 65.464 535.254 64.632V18.072C535.254 16.664 535.222 15.288 535.158 13.944C535.158 12.6 535.126 11.224 535.062 9.816C534.998 9.112 534.87 8.344 534.678 7.512C534.55 6.68 534.006 6.264 533.046 6.264C532.406 6.264 531.766 6.296 531.126 6.36C530.55 6.424 529.942 6.456 529.302 6.456C528.278 6.456 527.766 6.008 527.766 5.112C527.766 4.472 528.118 4.056 528.822 3.86399C529.59 3.672 530.39 3.544 531.222 3.47999C532.054 3.41599 532.854 3.32 533.622 3.192C535.414 2.872 537.174 2.488 538.902 2.04C540.694 1.592 542.486 1.144 544.278 0.695995C544.47 0.631996 544.63 0.599997 544.758 0.599997C544.95 0.535997 545.142 0.503998 545.334 0.503998C546.294 0.503998 546.774 0.919998 546.774 1.752C546.774 8.92 546.742 16.088 546.678 23.256C546.614 30.36 546.582 37.464 546.582 44.568C548.822 42.84 551.094 41.112 553.398 39.384C555.702 37.592 557.878 35.704 559.926 33.72C560.886 32.76 561.878 31.8 562.902 30.84C563.926 29.816 564.822 28.76 565.59 27.672C566.102 26.968 566.39 26.296 566.454 25.656C566.582 24.952 566.742 24.376 566.934 23.928C567.19 23.48 567.734 23.256 568.566 23.256C570.23 23.256 571.894 23.288 573.558 23.352C575.222 23.352 576.854 23.352 578.454 23.352C579.414 23.352 579.894 23.768 579.894 24.6C579.894 25.304 579.67 25.72 579.222 25.848C578.774 25.976 578.294 26.04 577.782 26.04C576.822 26.04 575.798 26.232 574.71 26.616C573.686 27 572.822 27.448 572.118 27.96C569.686 29.816 567.286 31.768 564.918 33.816C562.614 35.8 560.278 37.816 557.91 39.864C558.55 40.952 559.51 42.616 560.79 44.856C562.134 47.096 563.638 49.592 565.302 52.344C566.966 55.096 568.662 57.784 570.39 60.408C572.118 63.032 573.686 65.336 575.094 67.32C576.566 69.24 577.718 70.52 578.55 71.16C579.126 71.608 579.67 71.896 580.182 72.024C580.694 72.152 581.27 72.312 581.91 72.504C582.55 72.696 582.87 73.048 582.87 73.56ZM618.851 41.304C618.851 40.024 618.787 38.488 618.659 36.696C618.531 34.904 618.211 33.176 617.699 31.512C617.251 29.784 616.515 28.344 615.491 27.192C614.467 26.04 613.059 25.464 611.267 25.464C609.539 25.464 608.003 26.04 606.659 27.192C605.379 28.28 604.291 29.688 603.395 31.416C602.499 33.08 601.795 34.84 601.283 36.696C600.771 38.488 600.387 40.088 600.131 41.496C601.219 41.496 602.275 41.528 603.299 41.592C604.387 41.592 605.443 41.592 606.467 41.592C610.627 41.592 614.755 41.496 618.851 41.304ZM632.675 62.52C632.675 62.712 632.611 63 632.483 63.384C632.419 63.704 632.323 63.96 632.195 64.152C631.747 65.176 630.915 66.36 629.699 67.704C628.483 68.984 627.395 69.976 626.435 70.68C622.147 73.944 617.187 75.576 611.555 75.576C606.499 75.576 602.115 74.52 598.403 72.408C594.691 70.232 591.843 67.224 589.859 63.384C587.875 59.544 586.883 55.128 586.883 50.136C586.883 45.144 587.843 40.632 589.763 36.6C591.747 32.504 594.563 29.272 598.211 26.904C601.923 24.472 606.371 23.256 611.555 23.256C617.507 23.256 622.275 24.888 625.859 28.152C629.443 31.416 631.235 36.088 631.235 42.168C631.235 43.832 630.467 44.664 628.931 44.664C626.115 44.664 623.299 44.632 620.483 44.568C617.667 44.504 614.851 44.472 612.035 44.472C609.987 44.472 607.939 44.472 605.891 44.472C603.843 44.472 601.795 44.504 599.747 44.568C599.555 46.488 599.459 48.44 599.459 50.424C599.459 52.216 599.683 54.328 600.131 56.76C600.643 59.192 601.379 61.56 602.339 63.864C603.363 66.168 604.675 68.088 606.275 69.624C607.875 71.096 609.827 71.832 612.131 71.832C615.011 71.832 617.411 71.416 619.331 70.584C621.315 69.752 623.075 68.568 624.611 67.032C626.147 65.496 627.715 63.672 629.315 61.56C629.507 61.304 629.699 61.112 629.891 60.984C630.147 60.792 630.435 60.696 630.755 60.696C631.203 60.696 631.619 60.888 632.003 61.272C632.451 61.592 632.675 62.008 632.675 62.52ZM670.491 70.392C670.491 71.288 670.011 72.088 669.051 72.792C668.155 73.432 667.003 73.976 665.595 74.424C664.251 74.808 662.875 75.096 661.467 75.288C660.059 75.48 658.875 75.576 657.915 75.576C653.115 75.576 649.787 74.616 647.931 72.696C646.075 70.712 645.147 67.448 645.147 62.904C645.147 57.4 645.179 51.896 645.243 46.392C645.307 40.888 645.339 35.384 645.339 29.88H640.923C640.283 29.88 639.739 30.104 639.291 30.552C638.843 30.936 638.427 31.128 638.043 31.128C637.403 31.128 637.083 30.808 637.083 30.168C637.083 29.912 637.211 29.432 637.467 28.728C637.723 28.024 637.915 27.576 638.043 27.384C638.235 27 638.427 26.776 638.619 26.712C638.811 26.648 639.099 26.616 639.483 26.616H645.435V16.344C647.035 15.448 648.795 14.136 650.715 12.408C652.635 10.68 654.107 9.08 655.131 7.608C655.323 7.288 655.579 6.968 655.899 6.648C656.219 6.264 656.603 6.07199 657.051 6.07199C658.075 6.07199 658.555 6.51999 658.491 7.41599L658.203 26.616H668.091C668.603 26.616 669.051 26.744 669.435 27C669.883 27.192 670.107 27.576 670.107 28.152C670.107 29.368 669.435 29.976 668.091 29.976H658.203L658.011 67.032C658.011 68.056 658.203 69.048 658.587 70.008C659.035 70.904 659.867 71.352 661.083 71.352C662.171 71.352 663.259 71.256 664.347 71.064C665.499 70.872 666.555 70.552 667.515 70.104C667.835 69.976 668.123 69.848 668.379 69.72C668.699 69.528 669.019 69.432 669.339 69.432C670.107 69.432 670.491 69.752 670.491 70.392Z" fill="white"/>
</svg>
