<svg width="671" height="76" viewBox="0 0 671 76" fill="none" xmlns="http://www.w3.org/2000/svg">
<path d="M46.576 22.008C46.576 16.888 44.976 13.176 41.776 10.872C38.64 8.504 34.704 7.32 29.968 7.32C28.688 7.32 27.376 7.352 26.032 7.41599C24.688 7.41599 23.344 7.41599 22 7.41599C21.36 7.41599 20.72 7.608 20.08 7.992C19.44 8.376 19.12 8.92 19.12 9.62399V36.888C20.528 37.912 22.256 38.52 24.304 38.712C26.352 38.904 28.176 39 29.776 39C35.28 39 39.44 37.528 42.256 34.584C45.136 31.64 46.576 27.448 46.576 22.008ZM57.136 21.72C57.136 25.88 56.336 29.272 54.736 31.896C53.2 34.52 51.12 36.568 48.496 38.04C45.872 39.512 42.896 40.536 39.568 41.112C36.304 41.624 32.944 41.88 29.488 41.88C27.76 41.88 26.032 41.784 24.304 41.592C22.576 41.4 20.88 41.176 19.216 40.92V69.624C19.216 70.584 19.632 71.224 20.464 71.544C21.296 71.864 22.224 72.024 23.248 72.024C24.272 72.024 25.104 72.024 25.744 72.024C26.128 72.024 26.512 72.024 26.896 72.024C27.344 71.96 27.76 71.928 28.144 71.928C28.72 71.928 29.008 72.184 29.008 72.696C29.008 73.528 28.944 74.104 28.816 74.424C28.688 74.68 28.176 74.808 27.28 74.808C25.104 74.808 22.96 74.744 20.848 74.616C18.736 74.488 16.624 74.424 14.512 74.424C12.336 74.424 10.128 74.52 7.888 74.712C5.712 74.84 3.536 74.904 1.36 74.904C0.72 74.904 0.4 74.488 0.4 73.656C0.4 73.272 0.464 72.92 0.592 72.6C0.72 72.28 1.04 72.12 1.552 72.12C2.32 72.12 3.088 72.152 3.856 72.216C4.624 72.216 5.392 72.216 6.16 72.216C6.928 72.216 7.6 72.024 8.176 71.64C8.816 71.256 9.168 70.648 9.232 69.816C9.36 68.664 9.392 67.512 9.328 66.36C9.328 65.144 9.328 63.96 9.328 62.808C9.328 60.504 9.328 58.2 9.328 55.896C9.328 53.528 9.328 51.192 9.328 48.888V32.088C9.328 28.312 9.296 24.568 9.232 20.856C9.232 17.08 9.232 13.336 9.232 9.62399C9.232 8.47199 8.656 7.8 7.504 7.608C6.416 7.352 5.456 7.224 4.624 7.224C4.048 7.224 3.472 7.256 2.896 7.32C2.32 7.32 1.776 7.32 1.264 7.32C0.816 7.32 0.56 7.128 0.496 6.744C0.496 6.296 0.496 5.94399 0.496 5.68799C0.496 5.432 0.56 5.208 0.688 5.016C0.816 4.76 1.008 4.632 1.264 4.632C3.376 4.632 5.488 4.696 7.6 4.824C9.712 4.952 11.856 5.016 14.032 5.016C17.36 5.016 20.688 4.952 24.016 4.824C27.344 4.696 30.672 4.632 34 4.632C36.688 4.632 39.376 4.92 42.064 5.496C44.816 6.072 47.312 7.032 49.552 8.376C51.856 9.72 53.68 11.48 55.024 13.656C56.432 15.832 57.136 18.52 57.136 21.72ZM118.002 73.944C118.002 74.264 117.842 74.52 117.522 74.712C117.202 74.84 116.882 74.904 116.562 74.904C114.962 74.904 113.33 74.872 111.666 74.808C110.066 74.68 108.434 74.616 106.77 74.616C104.914 74.616 103.026 74.68 101.106 74.808C99.2503 74.936 97.3943 75 95.5383 75C95.2183 75 94.9943 74.808 94.8663 74.424C94.8023 73.976 94.7703 73.624 94.7703 73.368C94.7703 72.92 94.9943 72.696 95.4423 72.696C96.1463 72.696 96.8183 72.728 97.4583 72.792C98.1623 72.792 98.8343 72.792 99.4743 72.792C100.306 72.792 100.946 72.536 101.394 72.024C101.906 71.448 102.194 70.776 102.258 70.008C102.386 68.408 102.418 66.808 102.354 65.208C102.354 63.608 102.354 62.04 102.354 60.504C102.354 58.584 102.354 56.696 102.354 54.84C102.354 52.92 102.354 51 102.354 49.08C102.354 47.16 102.354 45.24 102.354 43.32C102.354 41.4 102.29 39.48 102.162 37.56C102.098 36.728 102.002 35.928 101.874 35.16C101.81 34.328 101.65 33.528 101.394 32.76C100.754 31.032 99.6983 29.72 98.2263 28.824C96.8183 27.864 95.1863 27.384 93.3303 27.384C91.1543 27.384 89.0103 27.96 86.8983 29.112C84.7863 30.2 83.0263 31.576 81.6183 33.24C80.0823 35.032 78.9623 36.6 78.2583 37.944C77.5543 39.288 77.1063 40.696 76.9143 42.168C76.7863 43.64 76.7223 45.56 76.7223 47.928V64.824C76.7223 65.528 76.6903 66.52 76.6263 67.8C76.6263 69.08 76.7863 70.232 77.1063 71.256C77.4903 72.28 78.2263 72.792 79.3143 72.792C79.9543 72.792 80.5623 72.76 81.1383 72.696C81.7143 72.632 82.3223 72.6 82.9623 72.6C83.5383 72.6 83.8263 72.92 83.8263 73.56C83.8263 73.88 83.7623 74.2 83.6343 74.52C83.5703 74.776 83.3463 74.904 82.9623 74.904C80.7863 74.904 78.5463 74.872 76.2423 74.808C74.0023 74.68 71.7623 74.616 69.5223 74.616C67.4743 74.616 65.3943 74.712 63.2823 74.904C63.0263 74.904 62.8023 74.936 62.6103 75C62.4183 75 62.1943 75 61.9383 75C61.6183 75 61.3623 74.84 61.1703 74.52C61.0423 74.136 60.9783 73.816 60.9783 73.56C60.9783 72.856 61.3303 72.504 62.0343 72.504C62.4183 72.504 62.8023 72.536 63.1863 72.6C63.5703 72.6 63.9863 72.6 64.4343 72.6C65.3303 72.6 66.2583 72.472 67.2183 72.216C68.2423 71.896 68.7863 71.16 68.8503 70.008C68.9783 67.896 69.0103 65.784 68.9463 63.672C68.9463 61.56 68.9463 59.48 68.9463 57.432C68.9463 53.464 68.9463 49.528 68.9463 45.624C69.0103 41.72 69.0423 37.816 69.0423 33.912C69.0423 29.816 69.0103 25.752 68.9463 21.72C68.8823 17.624 68.8183 13.528 68.7543 9.432C68.7543 8.728 68.6263 7.96 68.3703 7.128C68.1143 6.232 67.5383 5.784 66.6423 5.784C65.7463 5.784 64.8183 5.848 63.8583 5.976C62.8983 6.104 61.9383 6.168 60.9783 6.168C60.4023 6.168 60.1143 5.912 60.1143 5.4C60.1143 4.824 60.4023 4.44 60.9783 4.248C62.2583 3.928 63.5063 3.672 64.7223 3.47999C66.0023 3.288 67.2503 3.064 68.4663 2.808C69.5543 2.552 70.8343 2.2 72.3063 1.752C73.8423 1.24 75.1223 0.983997 76.1463 0.983997C76.5303 0.983997 76.7543 1.112 76.8183 1.368C76.8823 1.56 76.9143 1.81599 76.9143 2.13599C76.9143 7.384 76.9143 12.632 76.9143 17.88C76.9143 23.128 76.8503 28.376 76.7223 33.624C78.1303 32.152 79.8263 30.68 81.8103 29.208C83.8583 27.736 86.0343 26.52 88.3383 25.56C90.6423 24.536 92.8183 24.024 94.8663 24.024C99.0263 24.024 102.29 24.632 104.658 25.848C107.026 27.064 108.69 28.952 109.65 31.512C110.61 34.008 111.09 37.272 111.09 41.304C111.09 46.104 111.058 50.904 110.994 55.704C110.994 60.44 110.994 65.208 110.994 70.008C110.994 71.032 111.25 71.768 111.762 72.216C112.338 72.6 113.138 72.792 114.162 72.792C114.61 72.792 115.026 72.76 115.41 72.696C115.858 72.632 116.306 72.6 116.754 72.6C117.074 72.6 117.362 72.76 117.618 73.08C117.874 73.336 118.002 73.624 118.002 73.944ZM164.154 49.656C164.154 46.904 163.93 44.152 163.482 41.4C163.098 38.584 162.33 35.992 161.178 33.624C160.09 31.256 158.49 29.368 156.378 27.96C154.266 26.488 151.514 25.752 148.122 25.752C144.922 25.752 142.298 26.52 140.25 28.056C138.266 29.592 136.698 31.576 135.546 34.008C134.458 36.44 133.69 39.064 133.242 41.88C132.858 44.696 132.666 47.352 132.666 49.848C132.666 52.6 132.858 55.352 133.242 58.104C133.69 60.856 134.49 63.352 135.642 65.592C136.794 67.768 138.426 69.528 140.538 70.872C142.714 72.216 145.498 72.888 148.89 72.888C152.218 72.888 154.874 72.184 156.858 70.776C158.906 69.368 160.442 67.512 161.466 65.208C162.554 62.904 163.258 60.408 163.578 57.72C163.962 54.968 164.154 52.28 164.154 49.656ZM174.042 49.944C174.042 54.744 172.89 59.064 170.586 62.904C168.346 66.744 165.274 69.784 161.37 72.024C157.53 74.264 153.21 75.384 148.41 75.384C143.738 75.384 139.514 74.264 135.738 72.024C131.962 69.72 128.954 66.68 126.714 62.904C124.474 59.064 123.354 54.808 123.354 50.136C123.354 45.336 124.442 40.92 126.618 36.888C128.794 32.792 131.77 29.496 135.546 27C139.386 24.504 143.802 23.256 148.794 23.256C154.17 23.256 158.746 24.408 162.522 26.712C166.298 28.952 169.146 32.088 171.066 36.12C173.05 40.088 174.042 44.696 174.042 49.944ZM213.413 70.584C213.413 71.16 212.965 71.736 212.069 72.312C211.237 72.888 210.213 73.4 208.997 73.848C207.781 74.296 206.597 74.648 205.445 74.904C204.357 75.16 203.557 75.288 203.045 75.288C199.717 75.288 197.125 74.872 195.269 74.04C193.477 73.208 192.197 71.832 191.429 69.912C190.725 67.992 190.373 65.4 190.373 62.136C190.373 56.824 190.373 51.512 190.373 46.2C190.437 40.824 190.501 35.48 190.565 30.168H183.653C183.205 30.168 182.821 30.296 182.501 30.552C182.245 30.744 181.957 30.84 181.637 30.84C181.317 30.84 181.157 30.616 181.157 30.168C181.157 29.912 181.317 29.4 181.637 28.632C182.021 27.864 182.277 27.352 182.405 27.096C182.597 27.16 182.885 27.192 183.269 27.192H190.757L190.853 15C192.325 14.04 193.669 12.984 194.885 11.832C196.101 10.616 197.317 9.4 198.533 8.184C198.661 8.056 198.789 7.96 198.917 7.89599C199.045 7.768 199.173 7.704 199.301 7.704C199.877 7.704 200.165 7.928 200.165 8.376L199.589 27.096C201.637 27.096 203.653 27.064 205.637 27C207.685 26.936 209.701 26.904 211.685 26.904C212.517 26.904 212.933 27.384 212.933 28.344C212.933 29.56 212.389 30.168 211.301 30.168H199.589C199.589 35.032 199.557 39.928 199.493 44.856C199.493 49.72 199.493 54.616 199.493 59.544V66.936C199.493 68.536 200.165 69.656 201.509 70.296C202.853 70.872 204.165 71.16 205.445 71.16C207.237 71.16 208.997 70.872 210.725 70.296C210.917 70.168 211.205 70.04 211.589 69.912C211.973 69.784 212.261 69.72 212.453 69.72C213.093 69.72 213.413 70.008 213.413 70.584ZM259.404 49.656C259.404 46.904 259.18 44.152 258.732 41.4C258.348 38.584 257.58 35.992 256.428 33.624C255.34 31.256 253.74 29.368 251.628 27.96C249.516 26.488 246.764 25.752 243.372 25.752C240.172 25.752 237.548 26.52 235.5 28.056C233.516 29.592 231.948 31.576 230.796 34.008C229.708 36.44 228.94 39.064 228.492 41.88C228.108 44.696 227.916 47.352 227.916 49.848C227.916 52.6 228.108 55.352 228.492 58.104C228.94 60.856 229.74 63.352 230.892 65.592C232.044 67.768 233.676 69.528 235.788 70.872C237.964 72.216 240.748 72.888 244.14 72.888C247.468 72.888 250.124 72.184 252.108 70.776C254.156 69.368 255.692 67.512 256.716 65.208C257.804 62.904 258.508 60.408 258.828 57.72C259.212 54.968 259.404 52.28 259.404 49.656ZM269.292 49.944C269.292 54.744 268.14 59.064 265.836 62.904C263.596 66.744 260.524 69.784 256.62 72.024C252.78 74.264 248.46 75.384 243.66 75.384C238.988 75.384 234.764 74.264 230.988 72.024C227.212 69.72 224.204 66.68 221.964 62.904C219.724 59.064 218.604 54.808 218.604 50.136C218.604 45.336 219.692 40.92 221.868 36.888C224.044 32.792 227.02 29.496 230.796 27C234.636 24.504 239.052 23.256 244.044 23.256C249.42 23.256 253.996 24.408 257.772 26.712C261.548 28.952 264.396 32.088 266.316 36.12C268.3 40.088 269.292 44.696 269.292 49.944ZM337.079 46.584C335.287 48.696 333.047 50.552 330.359 52.152C327.671 53.688 324.919 54.456 322.103 54.456C319.287 54.456 316.535 53.912 313.847 52.824C311.159 51.672 308.535 50.36 305.975 48.888C303.415 47.352 300.887 46.04 298.391 44.952C295.895 43.8 293.431 43.224 290.999 43.224C286.071 43.224 281.623 44.568 277.655 47.256L276.407 45.528C277.559 44.312 278.999 43.096 280.727 41.88C282.519 40.6 284.375 39.544 286.295 38.712C288.279 37.88 290.135 37.464 291.863 37.464C294.999 37.464 297.911 38.008 300.599 39.096C303.287 40.184 305.879 41.464 308.375 42.936C310.871 44.408 313.399 45.688 315.959 46.776C318.583 47.864 321.335 48.408 324.215 48.408C326.327 48.408 328.375 48.056 330.359 47.352C332.407 46.648 334.295 45.688 336.023 44.472L337.079 46.584ZM430.602 73.656C430.602 74.488 430.218 74.904 429.45 74.904C427.082 74.904 424.746 74.84 422.442 74.712C420.138 74.584 417.834 74.52 415.53 74.52C414.442 74.52 413.354 74.552 412.266 74.616C411.178 74.616 410.09 74.648 409.002 74.712C407.914 74.776 406.826 74.872 405.738 75C404.714 75.064 403.658 75.096 402.57 75.096C401.994 75.096 401.61 74.936 401.418 74.616C401.29 74.232 401.226 73.816 401.226 73.368C401.226 73.112 401.29 72.856 401.418 72.6C401.546 72.28 401.77 72.12 402.09 72.12C402.282 72.056 402.57 72.024 402.954 72.024C403.402 72.024 403.85 72.056 404.298 72.12C404.81 72.12 405.29 72.12 405.738 72.12C406.634 72.12 407.626 72.024 408.714 71.832C409.866 71.64 410.506 70.936 410.634 69.72C410.698 69.528 410.698 69.336 410.634 69.144C410.634 68.952 410.634 68.76 410.634 68.568V9.72H410.058C407.626 16.312 405.098 22.872 402.474 29.4C399.85 35.864 397.226 42.328 394.602 48.792C393.578 51.416 392.522 54.04 391.434 56.664C390.346 59.288 389.258 61.912 388.17 64.536C387.722 65.688 387.274 66.872 386.826 68.088C386.442 69.304 385.962 70.456 385.386 71.544C384.938 72.248 384.234 72.6 383.274 72.6C382.378 72.6 381.706 72.248 381.258 71.544C380.746 70.584 380.266 69.56 379.818 68.472C379.434 67.384 379.018 66.328 378.57 65.304C377.61 63.064 376.682 60.856 375.786 58.68C374.89 56.504 373.994 54.328 373.098 52.152C370.154 45.112 367.21 38.104 364.266 31.128C361.386 24.088 358.506 17.08 355.626 10.104C355.626 20.024 355.626 29.976 355.626 39.96C355.69 49.88 355.722 59.8 355.722 69.72C355.722 71 356.266 71.736 357.354 71.928C358.506 72.12 359.562 72.216 360.522 72.216C361.162 72.216 361.802 72.184 362.442 72.12C363.082 72.056 363.722 72.024 364.362 72.024C364.682 72.024 364.842 72.216 364.842 72.6C364.842 72.92 364.81 73.368 364.746 73.944C364.682 74.52 364.426 74.808 363.978 74.808C362.25 74.808 360.49 74.776 358.698 74.712C356.97 74.584 355.242 74.52 353.514 74.52C351.85 74.52 350.154 74.584 348.426 74.712C346.762 74.776 345.098 74.808 343.434 74.808C343.37 74.68 343.306 74.584 343.242 74.52C343.242 74.392 343.21 74.296 343.146 74.232V73.368C343.146 72.728 343.274 72.376 343.53 72.312C343.786 72.248 344.138 72.216 344.586 72.216C345.098 72.216 345.578 72.248 346.026 72.312C346.474 72.312 346.922 72.312 347.37 72.312C348.33 72.312 349.354 72.184 350.442 71.928C351.53 71.672 352.106 70.936 352.17 69.72C352.298 68.696 352.33 67.672 352.266 66.648C352.266 65.56 352.266 64.504 352.266 63.48C352.266 61.432 352.234 59.384 352.17 57.336C352.17 55.224 352.17 53.144 352.17 51.096C352.17 44.248 352.202 37.432 352.266 30.648C352.394 23.864 352.458 17.08 352.458 10.296C352.458 9.08 351.882 8.28 350.73 7.89599C349.578 7.512 348.522 7.32 347.562 7.32C346.986 7.32 346.41 7.352 345.834 7.41599C345.258 7.48 344.682 7.512 344.105 7.512C343.722 7.512 343.466 7.32 343.338 6.936C343.21 6.552 343.146 6.232 343.146 5.976C343.146 5.08 343.498 4.632 344.202 4.632C345.866 4.632 347.562 4.696 349.29 4.824C351.018 4.888 352.714 4.92 354.378 4.92C357.642 4.92 360.906 4.824 364.17 4.632L386.922 59.352C390.442 50.2 394.122 41.144 397.962 32.184C401.802 23.16 405.354 14.04 408.618 4.824C410.218 4.888 411.786 4.952 413.322 5.016C414.922 5.016 416.522 5.016 418.122 5.016C420.042 5.016 421.93 4.952 423.786 4.824C425.706 4.632 427.626 4.536 429.546 4.536C429.93 4.536 430.154 4.728 430.218 5.112C430.282 5.49599 430.314 5.81599 430.314 6.07199C430.314 6.328 430.282 6.648 430.218 7.032C430.154 7.416 429.93 7.608 429.546 7.608C428.714 7.608 427.914 7.576 427.146 7.512C426.378 7.448 425.61 7.41599 424.842 7.41599C424.074 7.41599 423.114 7.608 421.962 7.992C420.874 8.312 420.33 8.952 420.33 9.912V68.952C420.33 70.424 420.746 71.352 421.578 71.736C422.474 72.056 423.594 72.216 424.938 72.216C425.706 72.216 426.474 72.184 427.242 72.12C428.01 72.056 428.81 72.024 429.642 72.024C430.154 72.024 430.442 72.216 430.506 72.6C430.57 72.984 430.602 73.336 430.602 73.656Z" fill="white"/>
<path d="M466.627 63.768C466.371 60.888 466.211 58.008 466.147 55.128C466.147 52.184 466.115 49.24 466.051 46.296H464.707C462.723 46.296 460.515 46.616 458.083 47.256C455.715 47.832 453.443 48.728 451.267 49.944C449.091 51.16 447.299 52.696 445.891 54.552C444.547 56.344 443.875 58.424 443.875 60.792C443.875 63.864 444.739 66.2 446.467 67.8C448.195 69.336 450.531 70.104 453.475 70.104C454.883 70.104 456.419 69.784 458.083 69.144C459.747 68.44 461.347 67.608 462.883 66.648C464.419 65.688 465.667 64.728 466.627 63.768ZM483.427 69.912C483.427 70.168 483.395 70.36 483.331 70.488C482.691 71.896 481.603 72.984 480.067 73.752C478.595 74.456 477.123 74.808 475.651 74.808C472.963 74.808 471.011 74.04 469.795 72.504C468.643 70.904 467.715 68.952 467.011 66.648C464.579 68.888 461.891 70.776 458.947 72.312C456.003 73.784 452.835 74.52 449.443 74.52C447.075 74.52 444.835 74.072 442.723 73.176C440.675 72.216 439.011 70.84 437.731 69.048C436.451 67.256 435.811 65.08 435.811 62.52C435.811 59.832 436.483 57.528 437.827 55.608C439.235 53.624 440.995 51.96 443.107 50.616C445.283 49.208 447.587 48.088 450.019 47.256C452.515 46.36 454.851 45.688 457.027 45.24C458.499 44.92 460.003 44.632 461.539 44.376C463.075 44.12 464.579 43.864 466.051 43.608C466.051 41.816 465.955 39.736 465.763 37.368C465.635 35 465.155 33.048 464.323 31.512C463.491 30.04 462.371 28.728 460.963 27.576C459.555 26.424 457.987 25.848 456.259 25.848C453.315 25.848 451.011 26.616 449.347 28.152C447.683 29.688 446.499 31.864 445.795 34.68C445.731 35 445.667 35.352 445.603 35.736C445.603 36.056 445.571 36.376 445.507 36.696C445.443 37.08 445.187 37.432 444.739 37.752C444.355 38.008 443.939 38.136 443.491 38.136C442.275 38.136 441.155 37.848 440.131 37.272C439.171 36.696 438.691 35.736 438.691 34.392C438.691 33.624 438.819 32.952 439.075 32.376C439.907 30.392 441.251 28.76 443.107 27.48C444.963 26.136 447.011 25.112 449.251 24.408C451.555 23.704 453.699 23.352 455.683 23.352C459.139 23.352 462.275 23.992 465.091 25.272C467.907 26.552 470.147 28.44 471.811 30.936C473.539 33.368 474.403 36.44 474.403 40.152C474.403 44.312 474.371 48.504 474.307 52.728C474.307 56.952 474.435 61.176 474.691 65.4C474.755 66.808 475.043 68.056 475.555 69.144C476.067 70.168 477.123 70.68 478.723 70.68C479.555 70.68 480.419 70.488 481.315 70.104C482.275 69.656 482.883 69.432 483.139 69.432C483.331 69.432 483.427 69.592 483.427 69.912ZM525.854 32.28C525.854 32.92 525.598 33.528 525.086 34.104C524.638 34.616 524.062 34.872 523.358 34.872C522.398 34.872 521.694 34.552 521.246 33.912C520.862 33.272 520.51 32.536 520.19 31.704C519.934 30.872 519.518 30.136 518.942 29.496C518.366 28.856 517.406 28.536 516.062 28.536C515.806 28.536 515.55 28.536 515.294 28.536C515.102 28.536 514.878 28.568 514.622 28.632C513.534 28.824 512.35 29.496 511.07 30.648C509.79 31.8 508.542 33.176 507.326 34.776C506.174 36.312 505.214 37.848 504.446 39.384C503.678 40.92 503.262 42.2 503.198 43.224C503.134 44.248 503.102 45.272 503.102 46.296C503.102 47.256 503.102 48.216 503.102 49.176C503.102 52.632 503.102 56.088 503.102 59.544C503.166 63 503.198 66.424 503.198 69.816C503.198 70.776 503.582 71.48 504.35 71.928C505.182 72.312 506.014 72.504 506.846 72.504C507.486 72.504 508.126 72.472 508.766 72.408C509.406 72.344 510.046 72.312 510.686 72.312C511.006 72.312 511.23 72.472 511.358 72.792C511.486 73.048 511.55 73.304 511.55 73.56C511.55 74.584 511.038 75.096 510.014 75.096C508.094 75.096 506.174 75.064 504.254 75C502.334 74.872 500.414 74.808 498.494 74.808C496.51 74.808 494.494 74.872 492.446 75C490.462 75.128 488.446 75.192 486.398 75.192C486.142 75.192 485.95 75 485.822 74.616C485.758 74.232 485.726 73.912 485.726 73.656C485.726 73.016 485.982 72.664 486.494 72.6C487.198 72.472 487.934 72.44 488.702 72.504C489.47 72.568 490.174 72.6 490.814 72.6C491.774 72.6 492.542 72.408 493.118 72.024C493.758 71.576 494.11 70.84 494.174 69.816C494.302 67.768 494.366 65.688 494.366 63.576C494.43 61.464 494.462 59.352 494.462 57.24V47.928C494.398 45.176 494.366 42.456 494.366 39.768C494.43 37.016 494.334 34.296 494.078 31.608C494.014 30.328 493.662 29.432 493.022 28.92C492.382 28.344 491.422 28.056 490.142 28.056C489.63 28.056 489.086 28.12 488.51 28.248C487.998 28.312 487.454 28.344 486.878 28.344C486.366 28.344 486.11 27.96 486.11 27.192C486.11 26.744 486.334 26.424 486.782 26.232C487.422 26.04 488.094 25.912 488.798 25.848C489.502 25.72 490.174 25.624 490.814 25.56C492.542 25.24 494.27 24.92 495.998 24.6C497.726 24.28 499.454 23.896 501.182 23.448C501.758 23.64 502.174 23.992 502.43 24.504C502.558 24.76 502.654 25.464 502.718 26.616C502.782 27.768 502.814 29.112 502.814 30.648C502.814 32.12 502.814 33.528 502.814 34.872C502.814 36.152 502.814 37.048 502.814 37.56C504.222 35.32 505.822 33.08 507.614 30.84C509.406 28.6 511.454 26.744 513.758 25.272C516.062 23.8 518.654 23.064 521.534 23.064C523.07 23.064 524.062 23.544 524.51 24.504C524.958 25.464 525.246 26.584 525.374 27.864C525.502 28.568 525.598 29.304 525.662 30.072C525.79 30.84 525.854 31.576 525.854 32.28ZM583.486 73.56C583.486 74.008 583.038 74.328 582.142 74.52C581.246 74.712 580.286 74.84 579.262 74.904C578.302 74.968 577.63 75 577.246 75C576.35 75 575.358 75 574.27 75C573.182 74.936 572.19 74.776 571.294 74.52C570.462 74.264 569.758 73.816 569.182 73.176C568.67 72.536 568.222 71.896 567.838 71.256C564.958 66.84 562.11 62.424 559.294 58.008C556.478 53.592 553.694 49.144 550.942 44.664L545.374 48.792V70.296C545.374 71.832 546.142 72.6 547.678 72.6C548.254 72.6 548.83 72.6 549.406 72.6C549.982 72.536 550.526 72.504 551.038 72.504C551.358 72.504 551.678 72.6 551.998 72.792C552.382 72.984 552.574 73.272 552.574 73.656C552.574 74.424 552.222 74.808 551.518 74.808C549.726 74.808 547.966 74.808 546.238 74.808C544.51 74.744 542.75 74.712 540.958 74.712C539.742 74.712 538.462 74.744 537.118 74.808C535.838 74.808 534.558 74.84 533.278 74.904C532.894 74.904 532.478 74.936 532.03 75C531.646 75.064 531.23 75.096 530.782 75.096C530.526 75.096 530.302 74.968 530.11 74.712C529.982 74.392 529.918 74.104 529.918 73.848C529.918 73.4 530.11 73.112 530.494 72.984C530.878 72.856 531.23 72.792 531.55 72.792C531.87 72.792 532.222 72.824 532.606 72.888C532.99 72.888 533.342 72.888 533.662 72.888C534.686 72.888 535.486 72.792 536.062 72.6C536.638 72.344 536.926 71.64 536.926 70.488V8.664C536.926 7.192 536.67 6.2 536.158 5.68799C535.646 5.176 534.622 4.92 533.086 4.92C532.574 4.92 532.062 4.984 531.55 5.112C531.038 5.17599 530.526 5.20799 530.014 5.20799C529.374 5.20799 529.054 4.88799 529.054 4.248C529.054 3.8 529.31 3.512 529.822 3.384C531.038 3.064 532.286 2.84 533.566 2.712C534.91 2.52 536.19 2.328 537.406 2.13599C537.982 2.008 538.782 1.848 539.806 1.65599C540.83 1.4 541.822 1.176 542.782 0.983997C543.806 0.791996 544.51 0.695995 544.894 0.695995C545.214 0.695995 545.374 0.887997 545.374 1.272L545.278 45.912C548.542 43.48 551.678 40.92 554.686 38.232C557.694 35.544 560.67 32.824 563.614 30.072C564.702 29.112 565.726 28.152 566.686 27.192C567.646 26.168 568.542 25.112 569.374 24.024C569.758 23.576 570.302 23.352 571.006 23.352C571.646 23.352 572.254 23.384 572.83 23.448C573.47 23.512 574.11 23.544 574.75 23.544C575.518 23.544 576.286 23.512 577.054 23.448C577.886 23.384 578.686 23.352 579.454 23.352C580.414 23.352 580.894 23.864 580.894 24.888C580.894 25.4 580.51 25.656 579.742 25.656C578.718 25.72 577.726 25.816 576.766 25.944C575.806 26.072 574.878 26.488 573.982 27.192C571.102 29.24 568.286 31.416 565.534 33.72C562.782 36.024 559.998 38.296 557.182 40.536C558.334 42.52 559.55 44.472 560.83 46.392C562.11 48.248 563.358 50.104 564.574 51.96C566.302 54.52 568.03 57.08 569.758 59.64C571.55 62.136 573.342 64.632 575.134 67.128C576.03 68.344 577.15 69.56 578.494 70.776C579.902 71.928 581.374 72.568 582.91 72.696C583.294 72.76 583.486 73.048 583.486 73.56ZM622.731 41.304C622.667 38.68 622.443 36.184 622.059 33.816C621.675 31.384 620.747 29.4 619.275 27.864C617.803 26.264 615.403 25.464 612.075 25.464C609.067 25.464 606.603 26.296 604.683 27.96C602.827 29.56 601.387 31.608 600.363 34.104C599.339 36.536 598.571 39.032 598.059 41.592C599.659 41.656 601.227 41.72 602.763 41.784C604.299 41.784 605.835 41.784 607.371 41.784C609.931 41.784 612.491 41.752 615.051 41.688C617.611 41.56 620.171 41.432 622.731 41.304ZM633.771 63.288C633.771 63.608 633.707 63.8 633.579 63.864C633.387 64.504 632.907 65.272 632.139 66.168C631.435 67.064 630.635 67.928 629.739 68.76C628.843 69.528 628.107 70.104 627.531 70.488C625.419 71.96 623.019 73.144 620.331 74.04C617.707 74.936 615.083 75.384 612.459 75.384C610.283 75.384 607.851 75.032 605.163 74.328C602.539 73.624 600.299 72.664 598.443 71.448C594.859 69.08 592.235 65.976 590.571 62.136C588.907 58.296 588.075 54.296 588.075 50.136C588.075 45.4 589.003 41.016 590.859 36.984C592.715 32.952 595.691 29.688 599.787 27.192C601.643 26.104 603.723 25.208 606.027 24.504C608.331 23.736 610.539 23.352 612.651 23.352C616.427 23.352 619.755 24.12 622.635 25.656C625.515 27.192 627.755 29.368 629.355 32.184C631.019 34.936 631.851 38.232 631.851 42.072C631.851 43.16 631.595 43.864 631.083 44.184C630.635 44.504 629.931 44.664 628.971 44.664C627.691 44.664 626.411 44.632 625.131 44.568C623.851 44.504 622.571 44.44 621.291 44.376C619.499 44.248 617.707 44.184 615.915 44.184C614.187 44.184 612.427 44.184 610.635 44.184C608.459 44.184 606.283 44.184 604.107 44.184C601.931 44.184 599.755 44.248 597.579 44.376C597.515 45.4 597.451 46.392 597.387 47.352C597.323 48.312 597.291 49.304 597.291 50.328C597.291 52.696 597.579 55.16 598.155 57.72C598.731 60.216 599.659 62.552 600.939 64.728C602.219 66.84 603.851 68.568 605.835 69.912C607.819 71.192 610.219 71.832 613.035 71.832C615.915 71.832 618.667 71.384 621.291 70.488C623.915 69.592 626.315 68.152 628.491 66.168C629.067 65.592 629.579 64.984 630.027 64.344C630.539 63.64 631.083 63.032 631.659 62.52C631.979 62.2 632.331 62.04 632.715 62.04C633.035 62.04 633.291 62.168 633.483 62.424C633.675 62.68 633.771 62.968 633.771 63.288ZM670.819 70.584C670.819 71.16 670.371 71.736 669.475 72.312C668.643 72.888 667.619 73.4 666.403 73.848C665.187 74.296 664.003 74.648 662.851 74.904C661.763 75.16 660.963 75.288 660.451 75.288C657.123 75.288 654.531 74.872 652.675 74.04C650.883 73.208 649.603 71.832 648.835 69.912C648.131 67.992 647.779 65.4 647.779 62.136C647.779 56.824 647.779 51.512 647.779 46.2C647.843 40.824 647.907 35.48 647.971 30.168H641.059C640.611 30.168 640.227 30.296 639.907 30.552C639.651 30.744 639.363 30.84 639.043 30.84C638.723 30.84 638.563 30.616 638.563 30.168C638.563 29.912 638.723 29.4 639.043 28.632C639.427 27.864 639.683 27.352 639.811 27.096C640.003 27.16 640.291 27.192 640.675 27.192H648.163L648.259 15C649.731 14.04 651.075 12.984 652.291 11.832C653.507 10.616 654.723 9.4 655.939 8.184C656.067 8.056 656.195 7.96 656.323 7.89599C656.451 7.768 656.579 7.704 656.707 7.704C657.283 7.704 657.571 7.928 657.571 8.376L656.995 27.096C659.043 27.096 661.059 27.064 663.043 27C665.091 26.936 667.107 26.904 669.091 26.904C669.923 26.904 670.339 27.384 670.339 28.344C670.339 29.56 669.795 30.168 668.707 30.168H656.995C656.995 35.032 656.963 39.928 656.899 44.856C656.899 49.72 656.899 54.616 656.899 59.544V66.936C656.899 68.536 657.571 69.656 658.915 70.296C660.259 70.872 661.571 71.16 662.851 71.16C664.643 71.16 666.403 70.872 668.131 70.296C668.323 70.168 668.611 70.04 668.995 69.912C669.379 69.784 669.667 69.72 669.859 69.72C670.499 69.72 670.819 70.008 670.819 70.584Z" fill="#1E3AFF"/>
</svg>
